<svg width="175" height="32" viewBox="0 0 175 32" fill="none" xmlns="http://www.w3.org/2000/svg">
<g clip-path="url(#clip0_1_924)">
<path fill-rule="evenodd" clip-rule="evenodd" d="M27.4524 11.652C28.2714 13.4637 28.7291 15.4768 28.7291 17.5946C28.7291 25.5503 22.2975 32.0002 14.3645 32.0002C11.1448 32.0002 8.16586 30.9373 5.76508 29.1336H14.9507C21.4464 29.1336 21.1975 28.5297 23.4056 22.5629L27.4524 11.6439V11.652ZM14.3645 3.18896C17.5923 3.18896 20.5632 4.25187 22.964 6.0556H6.9454L5.20303 11.1366H20.2902C21.0771 11.1366 21.4785 11.4507 21.4785 12.0707C21.4785 12.2156 21.4464 12.3606 21.3983 12.5216L18.4997 19.7768C17.2953 22.9414 16.7011 24.2941 14.0273 24.0606H7.98922C7.28263 24.0606 6.9454 23.5775 7.17825 22.9091L8.41477 19.4305H17.1266L18.861 14.3495H10.5024L8.94471 14.3254C5.44391 14.3012 4.376 13.9791 3.09131 17.7637L1.19638 23.352C0.425556 21.5886 0 19.6399 0 17.5865C0 9.63889 6.43152 3.18896 14.3645 3.18896Z" fill="#C3181E"/>
<path d="M31.162 5.29052C31.162 7.06204 29.7327 8.5034 27.9582 8.5034C26.1838 8.5034 24.7545 7.07009 24.7545 5.29052C24.7545 3.51095 26.1838 2.07764 27.9582 2.07764C29.7327 2.07764 31.162 3.51095 31.162 5.29052Z" fill="#C3181E"/>
<path d="M57.4822 2.72192H63.986C63.986 2.72192 63.986 2.74608 63.978 2.76218C63.978 2.77829 63.9619 2.80244 63.9459 2.83465C63.9298 2.86686 63.9218 2.90712 63.9057 2.96349C63.8897 3.01986 63.8736 3.08427 63.8575 3.1648C63.8415 3.24532 63.8094 3.34195 63.7772 3.45468C63.7451 3.56742 63.713 3.69625 63.6809 3.84119C63.6488 3.98614 63.6086 4.14718 63.5605 4.32434C63.5123 4.50149 63.4641 4.71085 63.3999 4.93631C63.3437 5.16983 63.2714 5.41945 63.1991 5.70129C63.1269 5.97506 63.0546 6.28105 62.9743 6.6112C62.894 6.94135 62.8057 7.3037 62.7093 7.69021C62.613 8.07673 62.5006 8.5035 62.3801 8.94638H67.0452L65.7605 14.8326H61.0392C61.0392 14.8326 61.0392 14.8568 61.0312 14.8729C61.0312 14.889 61.0151 14.9132 61.0151 14.9534C61.0151 14.9937 60.9991 15.042 60.983 15.0984C60.967 15.1547 60.9509 15.2353 60.9348 15.3238C60.9188 15.4205 60.8947 15.5251 60.8626 15.654C60.8385 15.7828 60.7984 15.9278 60.7502 16.0969C60.702 16.266 60.6538 16.4673 60.6056 16.6847C60.5494 16.9021 60.4932 17.1517 60.429 17.4255C60.3648 17.6993 60.2925 18.0133 60.2122 18.3435C60.1319 18.6817 60.0436 19.0521 59.9472 19.4627C59.8509 19.8734 59.7385 20.3163 59.618 20.7914C59.4976 21.2665 59.3691 21.7899 59.2246 22.3535C59.1844 22.6998 59.2647 22.9977 59.4655 23.2634C59.6662 23.5292 59.9472 23.658 60.3166 23.658H63.697L62.3962 29.2705H57.9479C56.1654 29.2705 54.7603 28.578 53.7325 27.193C52.6967 25.808 52.3755 24.1895 52.7529 22.3535L57.4983 2.71387L57.4822 2.72192Z" fill="#231F20"/>
<path d="M71.4854 2.72168H78.0856L76.5841 8.90588H82.2528C84.0674 8.90588 85.5127 9.59838 86.5726 10.9753C87.6325 12.3603 87.9617 13.9708 87.5682 15.8228L84.3083 29.2783H77.7082L80.9681 15.8228C81.0243 15.4766 80.944 15.1786 80.7433 14.9129C80.5426 14.6472 80.2535 14.5184 79.8841 14.5184H75.2191L71.7584 29.2863H65.1583L71.4854 2.72973V2.72168Z" fill="#231F20"/>
<path d="M93.3173 2.72168H99.9174L94.9954 22.3613C94.9553 22.7076 95.0356 23.0055 95.2443 23.2712C95.4451 23.537 95.7341 23.6658 96.1035 23.6658H99.7006L98.2955 29.2783H93.791C91.9764 29.2783 90.5231 28.5858 89.4552 27.2008C88.3872 25.8158 88.0259 24.1973 88.3953 22.3613L93.3173 2.72168Z" fill="#231F20"/>
<path d="M100.423 22.6031C100.447 24.4229 101.066 25.9931 102.262 27.3056C103.466 28.6262 105.434 29.2785 108.172 29.2785H119.718C119.718 29.2785 119.718 29.2462 119.734 29.214C119.734 29.1899 119.758 29.1416 119.774 29.0771C119.798 29.0127 119.814 28.9242 119.838 28.8034C119.862 28.6987 119.902 28.5457 119.959 28.3685C120.007 28.1833 120.063 27.9659 120.135 27.7083C120.2 27.4345 120.288 27.1365 120.376 26.7822C120.481 26.436 120.593 26.0253 120.713 25.5663C120.842 25.1073 120.978 24.5759 121.115 23.98H111.014C109.312 23.98 108.172 23.4888 107.593 22.4903C107.015 21.4999 106.831 20.4128 107.039 19.2452C107.481 17.5865 108.204 16.3867 109.24 15.6458C110.267 14.897 111.488 14.5266 112.893 14.5266H116.964V14.5427C116.964 14.5427 116.964 14.5588 116.964 14.5829C116.964 14.6071 116.94 14.6393 116.932 14.6957C116.916 14.7601 116.9 14.8406 116.867 14.9453C116.843 15.05 116.803 15.1788 116.763 15.3399C116.715 15.5009 116.667 15.7022 116.61 15.9277C116.546 16.1612 116.482 16.435 116.402 16.749H113.872C113.656 16.749 111.464 16.7249 110.837 16.7249L109.424 22.0475H117.164C118.489 22.0475 119.646 21.669 120.649 20.904C121.974 19.9136 122.416 18.7943 122.777 17.3449C122.817 17.2161 122.865 17.047 122.922 16.8537C122.978 16.6604 123.034 16.4108 123.114 16.1209C123.195 15.831 123.291 15.4848 123.387 15.0822C123.773 13.4878 123.451 12.0626 122.448 10.8225C121.444 9.58243 120.087 8.9624 118.385 8.9624H113.559C109.906 9.12345 106.807 10.4601 104.253 12.9725C101.7 15.4929 100.423 18.7057 100.423 22.6031Z" fill="#231F20"/>
<path d="M145.203 8.9624L136.78 19.052L141.783 29.2785H135.198L132.629 24.0444L128.277 29.2785H121.219L130.036 18.754L125.25 8.9624H131.85L134.203 13.7777L138.234 8.9624H145.195H145.203Z" fill="#231F20"/>
<path d="M142.947 28.9078C142.891 29.0527 142.818 29.1896 142.722 29.3265H149.41C149.459 29.1816 149.499 29.0447 149.523 28.9078L154.268 8.90576H147.692L142.947 28.9078Z" fill="#231F20"/>
<path d="M160.041 20.9038L159.359 22.933L159.142 23.714C159.086 23.9073 159.086 24.1006 159.094 24.2697C159.134 24.7769 159.391 25.0346 159.873 25.0346H167.171L168.167 21.1051L160.033 20.9118L160.041 20.9038ZM174.888 12.5857L170.712 29.3024H156.396C155.617 29.3024 155.007 29.0286 154.589 28.481C154.244 28.0059 154.043 27.4181 153.987 26.7015C153.947 26.2103 153.987 25.7674 154.1 25.3567L155.513 19.7281C155.866 18.3109 156.155 16.7649 157.223 16.8212C161.125 17.0387 165.22 17.0064 169.155 17.1031L169.733 14.4055C169.765 14.2686 169.781 14.1479 169.765 14.019C169.725 13.4956 169.387 13.2299 168.745 13.2299H157.038L158.13 8.9541H172.551C174.061 8.9541 174.872 9.75934 174.992 11.3618C175.024 11.7885 174.992 12.1911 174.888 12.5696V12.5857Z" fill="#231F20"/>
<path d="M37.9307 20.9038L37.2482 22.933L37.0314 23.714C36.9752 23.9073 36.9752 24.1006 36.9833 24.2697C37.0234 24.7769 37.2803 25.0346 37.7621 25.0346H45.0608L46.0564 21.1051L37.9227 20.9118L37.9307 20.9038ZM52.777 12.5857L48.6017 29.3024H34.2854C33.5065 29.3024 32.8963 29.0286 32.4788 28.481C32.1335 28.0059 31.9328 27.4181 31.8766 26.7015C31.8364 26.2103 31.8766 25.7674 31.989 25.3567L33.4022 19.7281C33.7554 18.3109 34.0445 16.7649 35.1204 16.8212C39.0227 17.0387 43.1177 17.0064 47.044 17.1031L47.6222 14.4055C47.6543 14.2686 47.6703 14.1479 47.6543 14.019C47.6141 13.4956 47.2769 13.2299 46.6346 13.2299H34.9277L36.0197 8.9541H50.4405C51.95 8.9541 52.761 9.75934 52.8814 11.3618C52.9135 11.7885 52.8814 12.1911 52.777 12.5696V12.5857Z" fill="#231F20"/>
<path d="M155.352 4.54132C154.862 6.5383 152.943 7.77836 151.064 7.31938C149.178 6.8604 148.045 4.87147 148.535 2.87449C149.025 0.877509 150.944 -0.362551 152.823 0.0964324C154.702 0.555416 155.834 2.54434 155.352 4.54132Z" fill="#C3181E"/>
</g>
<defs>
<clipPath id="clip0_1_924">
<rect width="175" height="32" fill="white"/>
</clipPath>
</defs>
</svg>
