<svg width="40" height="40" viewBox="0 0 40 40" fill="none" xmlns="http://www.w3.org/2000/svg">
<rect width="40" height="40" rx="20" fill="#C3181E"/>
<path d="M29.9592 19.2933C30.0049 19.3391 30.0465 19.3892 30.0828 19.4431C30.1114 19.4858 30.1353 19.5308 30.1567 19.5764C30.1768 19.6193 30.1945 19.6637 30.2085 19.7097C30.2125 19.7231 30.2153 19.7369 30.2188 19.7504C30.2234 19.768 30.2283 19.7856 30.2319 19.8036C30.2408 19.8478 30.2457 19.8926 30.2485 19.9375C30.2498 19.9584 30.252 19.9793 30.252 20.0004C30.252 20.2831 30.1339 20.5381 29.9454 20.7199L22.8232 27.8421C22.4327 28.2326 21.7995 28.2326 21.409 27.8421C21.0187 27.4516 21.0185 26.8183 21.409 26.4279L26.8366 21.0003H11.4142C10.8619 21.0003 10.4143 20.5527 10.4143 20.0004C10.4145 19.4483 10.862 19.0005 11.4142 19.0005H26.838L21.409 13.5715C21.0186 13.181 21.0185 12.5478 21.409 12.1573C21.7995 11.767 22.4327 11.767 22.8232 12.1573L29.9592 19.2933Z" fill="white"/>
</svg>
